<mxfile host="65bd71144e">
    <diagram id="7bshMCoIEP99EQuUOXUW" name="Page-1">
        <mxGraphModel dx="372" dy="372" grid="1" gridSize="10" guides="1" tooltips="1" connect="1" arrows="1" fold="1" page="1" pageScale="1" pageWidth="850" pageHeight="1100" math="0" shadow="0">
            <root>
                <mxCell id="0"/>
                <mxCell id="1" parent="0"/>
                <mxCell id="3" style="edgeStyle=none;html=1;" parent="1" source="2" edge="1">
                    <mxGeometry relative="1" as="geometry">
                        <mxPoint x="180" y="200" as="targetPoint"/>
                    </mxGeometry>
                </mxCell>
                <mxCell id="2" value="" style="whiteSpace=wrap;html=1;" parent="1" vertex="1">
                    <mxGeometry x="120" y="40" width="120" height="60" as="geometry"/>
                </mxCell>
            </root>
        </mxGraphModel>
    </diagram>
</mxfile>